HIERARCHY
ROOT Hips
{
 OFFSET 0.000000 0.000000 0.000000
 CHANNELS 6 Xposition Yposition Zposition Yrotation Xrotation Zrotation
 JOINT Chest
 {
  OFFSET 0.000000 10.354800 0.006500
  CHANNELS 3 Yrotation Xrotation Zrotation
  JOINT Chest2
  {
   OFFSET 0.000000 10.435800 -0.013200
   CHANNELS 3 Yrotation Xrotation Zrotation
   JOINT Chest3
   {
    OFFSET 0.000000 10.393700 0.000000
    CHANNELS 3 Yrotation Xrotation Zrotation
    JOINT Chest4
    {
     OFFSET 0.000000 10.383100 0.000000
     CHANNELS 3 Yrotation Xrotation Zrotation
     JOINT Neck
     {
      OFFSET 0.000000 15.694000 0.000000
      CHANNELS 3 Yrotation Xrotation Zrotation
      JOINT Head
      {
       OFFSET 0.000000 9.711000 -0.028000
       CHANNELS 3 Yrotation Xrotation Zrotation
       End Site
       {
        OFFSET 0.000000 18.578700 -0.014800
       }
      }
     }
     JOINT RightCollar
     {
      OFFSET -3.157200 10.367500 0.000000
      CHANNELS 3 Yrotation Xrotation Zrotation
      JOINT RightShoulder
      {
       OFFSET -14.482500 0.000000 0.000000
       CHANNELS 3 Yrotation Xrotation Zrotation
       JOINT RightElbow
       {
        OFFSET 0.000000 -31.707800 0.000000
        CHANNELS 3 Yrotation Xrotation Zrotation
        JOINT RightWrist
        {
         OFFSET 0.000000 -25.659300 0.000000
         CHANNELS 3 Yrotation Xrotation Zrotation
         End Site
         {
          OFFSET 0.000000 -18.994300 0.000000
         }
        }
       }
      }
     }
     JOINT LeftCollar
     {
      OFFSET 3.157200 10.367500 0.000000
      CHANNELS 3 Yrotation Xrotation Zrotation
      JOINT LeftShoulder
      {
       OFFSET 14.482500 0.000000 0.000000
       CHANNELS 3 Yrotation Xrotation Zrotation
       JOINT LeftElbow
       {
        OFFSET 0.000000 -31.707800 0.000000
        CHANNELS 3 Yrotation Xrotation Zrotation
        JOINT LeftWrist
        {
         OFFSET 0.000000 -25.659300 0.000000
         CHANNELS 3 Yrotation Xrotation Zrotation
         End Site
         {
          OFFSET 0.000000 -18.994300 0.000000
         }
        }
       }
      }
     }
    }
   }
  }
 }
 JOINT RightHip
 {
  OFFSET -8.365600 -0.032100 -0.003200
  CHANNELS 3 Yrotation Xrotation Zrotation
  JOINT RightKnee
  {
   OFFSET 0.000000 -43.980000 0.003100
   CHANNELS 3 Yrotation Xrotation Zrotation
   JOINT RightAnkle
   {
    OFFSET 0.000000 -42.882800 0.005200
    CHANNELS 3 Yrotation Xrotation Zrotation
    JOINT RightToe
    {
     OFFSET 0.000000 -4.915500 10.826300
     CHANNELS 3 Yrotation Xrotation Zrotation
     End Site
     {
      OFFSET 0.000000 -1.517500 6.175900
     }
    }
   }
  }
 }
 JOINT LeftHip
 {
  OFFSET 8.365600 -0.032100 -0.003200
  CHANNELS 3 Yrotation Xrotation Zrotation
  JOINT LeftKnee
  {
   OFFSET 0.000000 -43.980000 0.003100
   CHANNELS 3 Yrotation Xrotation Zrotation
   JOINT LeftAnkle
   {
    OFFSET 0.000000 -42.882800 0.005200
    CHANNELS 3 Yrotation Xrotation Zrotation
    JOINT LeftToe
    {
     OFFSET 0.000000 -4.915500 10.826300
     CHANNELS 3 Yrotation Xrotation Zrotation
     End Site
     {
      OFFSET 0.000000 -1.517500 6.175900
     }
    }
   }
  }
 }
}
MOTION
Frames: 16
Frame Time: 0.008333
2.457217 126.460846 42.783247 172.381409 -19.387393 -3.135033 -0.529270 12.636214 3.510490 -0.072773 1.002252 0.283993 -0.124605 1.701561 0.483129 -0.503553 11.457506 3.182272 0.708051 20.466524 -4.817300 1.873940 -3.847076 -5.351588 3.770465 5.883451 -4.304929 12.388041 -22.290262 -7.790699 -71.756627 -36.537339 105.972231 -31.494278 -19.534912 -34.627480 -1.561410 10.099751 0.114665 13.196174 -14.656907 -14.365018 87.210385 -45.777310 -115.716899 29.848533 -10.956014 42.736236 8.315290 -62.411839 -4.732973 -92.693030 78.910086 -86.450092 5.683227 4.193402 -16.438210 0.001195 -0.002292 0.000543 -22.314979 -63.653202 4.875108 93.296204 84.689829 87.109586 -4.684607 -24.015577 -2.778113 0.001591 0.005819 0.000722
2.455399 126.460792 42.782691 172.382984 -19.388194 -3.141426 -0.519256 12.640271 3.512218 -0.079819 0.999694 0.289085 -0.109507 1.710328 0.476025 -0.508457 11.454336 3.191610 0.701858 20.465078 -4.812338 1.869050 -3.847656 -5.347219 3.773711 5.875162 -4.316692 12.417299 -22.282440 -7.793863 -71.796420 -36.536596 105.971570 -31.493600 -19.533578 -34.624304 -1.565733 10.109340 0.115396 13.191084 -14.661218 -14.359685 87.188366 -45.764632 -115.705706 29.845552 -10.951434 42.737792 8.328158 -62.407823 -4.735088 -92.686658 78.902479 -86.441019 5.681616 4.192910 -16.433069 0.003601 -0.003047 0.001635 -22.318988 -63.652500 4.882234 93.314442 84.686489 87.119287 -4.684650 -24.015123 -2.771278 0.002071 0.005895 0.000940
2.453727 126.460651 42.782092 172.391773 -19.387953 -3.151628 -0.518567 12.643091 3.516152 -0.076877 1.000635 0.288495 -0.107229 1.712461 0.474885 -0.511366 11.453631 3.197028 0.698928 20.471861 -4.801645 1.861823 -3.850579 -5.341653 3.782448 5.869324 -4.327805 12.420669 -22.283346 -7.790127 -71.782051 -36.532119 105.944627 -31.492641 -19.524601 -34.601324 -1.571506 10.110160 0.117882 13.188417 -14.655339 -14.352276 87.129681 -45.757936 -115.655844 29.848872 -10.952036 42.730284 8.327739 -62.404870 -4.731336 -92.682107 78.893581 -86.437605 5.687380 4.191579 -16.424278 0.004400 -0.003552 0.001998 -22.321546 -63.652386 4.893503 93.361863 84.689273 87.145795 -4.697076 -24.020725 -2.745156 -0.002739 0.006014 -0.001244
2.453068 126.460265 42.782336 172.417629 -19.381866 -3.173886 -0.537792 12.639386 3.528951 -0.070239 1.003888 0.283537 -0.110983 1.710827 0.478775 -0.509172 11.456229 3.196084 0.694642 20.467683 -4.795032 1.853666 -3.845454 -5.329682 3.792010 5.864805 -4.336480 12.412686 -22.286459 -7.781974 -71.723489 -36.524379 105.902504 -31.495372 -19.531488 -34.572028 -1.570488 10.120869 0.128171 13.187427 -14.659736 -14.354542 87.109485 -45.755553 -115.645718 29.848483 -10.958007 42.723482 8.296709 -62.407180 -4.712573 -92.682363 78.888206 -86.440686 5.689278 4.188947 -16.413009 0.003119 -0.003999 0.001416 -22.354278 -63.657157 4.917730 93.400486 84.698559 87.177046 -4.691953 -24.027631 -2.734834 -0.002532 0.006198 -0.001150
2.452325 126.459726 42.782775 172.439613 -19.374032 -3.194323 -0.543098 12.637735 3.538916 -0.059317 1.007423 0.275684 -0.127908 1.704627 0.490470 -0.506802 11.457819 3.194712 0.689335 20.469769 -4.786789 1.839305 -3.840974 -5.310656 3.815343 5.861962 -4.352364 12.387069 -22.291387 -7.764169 -71.726008 -36.520922 105.897239 -31.515568 -19.494900 -34.582476 -1.575036 10.123332 0.141657 13.196060 -14.656659 -14.358553 87.099290 -45.750769 -115.647975 29.839515 -10.942001 42.740336 8.271702 -62.411892 -4.698009 -92.671163 78.887280 -86.429737 5.689030 4.189319 -16.404790 0.001797 -0.004822 0.000816 -22.356562 -63.670328 4.924248 93.479086 84.712397 87.262225 -4.700476 -24.031599 -2.725363 -0.000389 0.002170 -0.000176
2.449791 126.459291 42.782222 172.456120 -19.370252 -3.201831 -0.546746 12.636674 3.534619 -0.058217 1.009767 0.278089 -0.129878 1.702599 0.488835 -0.507342 11.460088 3.200480 0.682996 20.474540 -4.780317 1.831662 -3.846442 -5.302779 3.819778 5.855022 -4.355221 12.401420 -22.290332 -7.768985 -71.708939 -36.509653 105.879493 -31.511005 -19.514148 -34.582099 -1.581593 10.126295 0.154256 13.208413 -14.653918 -14.361293 87.067650 -45.749064 -115.632488 29.829388 -10.939329 42.744874 8.270433 -62.412414 -4.705890 -92.666953 78.887854 -86.426343 5.676634 4.188717 -16.399692 -0.000801 -0.004553 -0.000363 -22.370976 -63.674517 4.930580 93.474290 84.712856 87.252514 -4.740043 -24.040384 -2.720766 -0.004167 0.003113 -0.001892
2.447477 126.458862 42.781655 172.476306 -19.366410 -3.210976 -0.552293 12.638412 3.532999 -0.060841 1.008969 0.281270 -0.127299 1.703741 0.486785 -0.514029 11.459360 3.205222 0.679744 20.472354 -4.776608 1.823902 -3.845198 -5.294381 3.819542 5.848945 -4.354858 12.433923 -22.290400 -7.782184 -71.666056 -36.488933 105.840550 -31.525158 -19.515390 -34.601423 -1.586935 10.128932 0.162729 13.220855 -14.652014 -14.361994 87.018897 -45.765920 -115.590141 29.842902 -10.960349 42.713541 8.254107 -62.414154 -4.705971 -92.678936 78.889736 -86.445222 5.693542 4.185402 -16.399704 -0.002126 -0.005200 -0.000965 -22.367920 -63.681685 4.923302 93.491492 84.717339 87.277060 -4.791305 -24.046879 -2.717558 -0.005882 0.002470 -0.002671
2.447148 126.458356 42.781926 172.494913 -19.359586 -3.230224 -0.543240 12.638077 3.544140 -0.080427 1.003711 0.287759 -0.118707 1.708509 0.483749 -0.524225 11.454897 3.209207 0.677917 20.473312 -4.775193 1.818948 -3.844828 -5.286765 3.833757 5.842423 -4.360920 12.479677 -22.290169 -7.808682 -71.671104 -36.459234 105.814223 -31.510161 -19.541985 -34.598769 -1.588198 10.130568 0.167121 13.225821 -14.651744 -14.363656 87.013837 -45.766577 -115.587173 29.829147 -10.957690 42.729239 8.244526 -62.420531 -4.698171 -92.674218 78.882117 -86.439889 5.723849 4.190806 -16.403221 -0.001026 -0.008469 -0.000466 -22.370289 -63.690956 4.934910 93.553797 84.731490 87.352481 -4.804450 -24.051744 -2.717272 0.001075 -0.000165 0.000488
2.445443 126.457996 42.781385 172.512219 -19.356498 -3.239982 -0.551033 12.635962 3.545562 -0.078843 1.004355 0.290411 -0.114739 1.708637 0.479387 -0.535585 11.454374 3.216119 0.674483 20.474266 -4.771515 1.817322 -3.841818 -5.284101 3.867812 5.838575 -4.364870 12.459841 -22.289351 -7.812193 -71.666549 -36.447116 105.802719 -31.529189 -19.533151 -34.615868 -1.588177 10.130062 0.168485 13.235074 -14.640586 -14.354070 86.995500 -45.767811 -115.576118 29.833246 -10.958050 42.726966 8.253043 -62.420988 -4.711690 -92.688855 78.880670 -86.446575 5.696658 4.190024 -16.397023 -0.002649 -0.008247 -0.001203 -22.369133 -63.695103 4.930500 93.531760 84.727910 87.328633 -4.802407 -24.053269 -2.712477 0.003070 -0.000287 0.001394
2.442864 126.457697 42.780476 172.525462 -19.355207 -3.242479 -0.560420 12.635359 3.541870 -0.076492 1.004077 0.287716 -0.116015 1.708983 0.481196 -0.542292 11.452198 3.217055 0.672429 20.480739 -4.767390 1.815788 -3.839556 -5.281862 3.886208 5.837873 -4.368076 12.447574 -22.288880 -7.809144 -71.653532 -36.441320 105.791139 -31.550464 -19.499106 -34.634577 -1.584688 10.130946 0.171816 13.261141 -14.627466 -14.335034 86.955823 -45.751317 -115.565458 29.833375 -10.971870 42.728949 8.275667 -62.419357 -4.734840 -92.718884 78.873635 -86.473463 5.685764 4.185360 -16.388305 -0.002620 -0.006974 -0.001189 -22.364086 -63.697233 4.923526 93.498614 84.706694 87.276153 -4.821106 -24.050845 -2.694038 -0.002118 0.000295 -0.000962
2.441620 126.457402 42.780082 172.534185 -19.352576 -3.250421 -0.563832 12.633370 3.545563 -0.073136 1.004408 0.285533 -0.121302 1.708479 0.484698 -0.541565 11.452529 3.214246 0.670191 20.481176 -4.762681 1.810889 -3.835081 -5.278439 3.900344 5.833381 -4.371296 12.431383 -22.288291 -7.802964 -71.618286 -36.430920 105.776331 -31.543452 -19.500668 -34.630463 -1.583205 10.127898 0.175720 13.272443 -14.621838 -14.327514 86.933292 -45.748539 -115.543257 29.830416 -10.974664 42.741742 8.283155 -62.420709 -4.740853 -92.743235 78.874411 -86.495431 5.692673 4.182664 -16.386114 -0.000772 -0.007124 -0.000351 -22.368608 -63.698385 4.927370 93.490372 84.706703 87.265545 -4.821197 -24.051078 -2.688963 -0.002143 0.001312 -0.000973
2.441006 126.457144 42.779902 172.543658 -19.349472 -3.261543 -0.568328 12.631510 3.551606 -0.073104 1.003595 0.285505 -0.121489 1.707112 0.484942 -0.540757 11.446596 3.215603 0.665972 20.488495 -4.760291 1.810486 -3.833532 -5.278151 3.910205 5.838298 -4.374543 12.422050 -22.289295 -7.804548 -71.564829 -36.431930 105.750614 -31.545824 -19.532975 -34.613645 -1.589180 10.132325 0.177971 13.281152 -14.617925 -14.326374 86.913585 -45.762374 -115.511156 29.839316 -10.983298 42.739862 8.297607 -62.416293 -4.749541 -92.730243 78.871294 -86.472917 5.674967 4.180150 -16.380676 -0.000731 -0.003868 -0.000332 -22.360470 -63.701372 4.921783 93.496137 84.708852 87.276450 -4.812440 -24.048301 -2.682937 -0.001105 0.000795 -0.000502
2.439711 126.456976 42.779372 172.550429 -19.348211 -3.267167 -0.566990 12.632203 3.553527 -0.068620 1.005445 0.283424 -0.122135 1.706630 0.485761 -0.548591 11.443143 3.220344 0.663107 20.492322 -4.758256 1.807141 -3.830023 -5.275760 3.913179 5.837867 -4.375763 12.467865 -22.282828 -7.834365 -71.607468 -36.422295 105.752164 -31.545824 -19.525682 -34.610927 -1.591632 10.132983 0.177625 13.297342 -14.620238 -14.315291 86.893679 -45.760213 -115.496142 29.848212 -10.987122 42.739734 8.304535 -62.413882 -4.756740 -92.747726 78.873722 -86.488447 5.672496 4.174145 -16.379909 -0.000595 -0.002539 -0.000270 -22.342526 -63.704914 4.910599 93.481996 84.705007 87.267867 -4.835082 -24.029034 -2.689349 -0.000951 0.001101 -0.000432
2.438001 126.456816 42.778800 172.552028 -19.347273 -3.268198 -0.555573 12.635016 3.554182 -0.073943 1.003669 0.286468 -0.126168 1.705532 0.485398 -0.548813 11.442744 3.220145 0.661108 20.492745 -4.757201 1.802616 -3.827524 -5.272649 3.927937 5.834612 -4.378498 12.465663 -22.278576 -7.836161 -71.594767 -36.432418 105.737412 -31.546830 -19.516655 -34.590671 -1.590079 10.123185 0.181388 13.301400 -14.612598 -14.303948 86.885242 -45.763404 -115.485325 29.858253 -10.990283 42.739162 8.320438 -62.410488 -4.769315 -92.749503 78.871830 -86.489531 5.689512 4.169866 -16.378364 0.001852 -0.002250 0.000841 -22.281953 -63.707922 4.877101 93.453209 84.694126 87.237546 -4.882376 -24.009610 -2.662219 -0.004670 0.000631 -0.002121
2.436753 126.456654 42.778351 172.564965 -19.345368 -3.275040 -0.560947 12.635058 3.558902 -0.072691 1.005039 0.286243 -0.129735 1.704520 0.486532 -0.549803 11.447434 3.225915 0.658430 20.492370 -4.755328 1.799992 -3.831165 -5.278145 3.943344 5.830706 -4.393968 12.460220 -22.280036 -7.832988 -71.583492 -36.436827 105.724426 -31.546367 -19.468083 -34.576509 -1.587126 10.105190 0.176898 13.302604 -14.601098 -14.292824 86.877639 -45.761584 -115.481254 29.843200 -10.986973 42.748668 8.320541 -62.407098 -4.775591 -92.726740 78.869950 -86.471730 5.725545 4.170079 -16.373452 0.004094 -0.004218 0.001859 -22.290722 -63.709040 4.879496 93.407239 84.687452 87.180694 -4.873858 -23.989139 -2.654274 -0.006119 0.001943 -0.002778
2.435665 126.456350 42.778432 172.598803 -19.339120 -3.289512 -0.590411 12.631059 3.562903 -0.069265 1.008917 0.285219 -0.125045 1.707942 0.488151 -0.561816 11.442804 3.230187 0.659205 20.489941 -4.758734 1.799047 -3.831979 -5.276477 3.963079 5.829406 -4.406980 12.474656 -22.281529 -7.836087 -71.588167 -36.443062 105.711357 -31.551113 -19.474086 -34.569339 -1.584636 10.099982 0.172228 13.311045 -14.600749 -14.280779 86.865810 -45.758214 -115.474799 29.830329 -10.979746 42.759757 8.301207 -62.406041 -4.777110 -92.725346 78.869438 -86.481975 5.714465 4.165157 -16.360102 -0.002308 -0.002061 -0.001048 -22.301739 -63.716242 4.871791 93.363015 84.688519 87.134334 -4.852964 -23.964338 -2.646474 -0.004407 0.001971 -0.002001
